<svg width="37" height="40" viewBox="0 0 37 40" fill="none" xmlns="http://www.w3.org/2000/svg">
<path d="M0.636814 28.9226C0.212271 25.9017 0 22.8979 0 19.9113C0 16.9251 0.212214 13.9217 0.636642 10.9012C0.73113 10.2287 1.08653 9.61915 1.62751 9.20164C4.04382 7.33678 6.56609 5.65353 9.19432 4.15191C11.8233 2.64988 14.5582 1.32956 17.3992 0.190965C18.034 -0.0634525 18.7439 -0.0636621 19.3788 0.19038C22.2044 1.32087 24.9391 2.64138 27.5829 4.15191C30.2264 5.66223 32.749 7.34541 35.1509 9.20145C35.6911 9.61894 36.046 10.2281 36.1404 10.9C36.565 13.9209 36.7773 16.9247 36.7773 19.9113C36.7773 22.8975 36.5651 25.9009 36.1406 28.9214C36.0461 29.5938 35.6907 30.2034 35.1498 30.6209C32.7334 32.4858 30.2112 34.169 27.5829 35.6707C24.954 37.1727 22.2191 38.493 19.3781 39.6316C18.7433 39.886 18.0334 39.8862 17.3984 39.6322C14.5728 38.5017 11.8381 37.1812 9.19432 35.6707C6.55087 34.1603 4.02823 32.4772 1.6264 30.6211C1.08614 30.2036 0.731235 29.5945 0.636814 28.9226Z" fill="#50B5FF"/>
<mask id="mask0" mask-type="alpha" maskUnits="userSpaceOnUse" x="0" y="0" width="37" height="40">
<path d="M0.636814 28.9226C0.212271 25.9017 0 22.8979 0 19.9113C0 16.9251 0.212214 13.9217 0.636642 10.9012C0.73113 10.2287 1.08653 9.61915 1.62751 9.20164C4.04382 7.33678 6.56609 5.65353 9.19432 4.15191C11.8233 2.64988 14.5582 1.32956 17.3992 0.190965C18.034 -0.0634525 18.7439 -0.0636621 19.3788 0.19038C22.2044 1.32087 24.9391 2.64138 27.5829 4.15191C30.2264 5.66223 32.749 7.34541 35.1509 9.20145C35.6911 9.61894 36.046 10.2281 36.1404 10.9C36.565 13.9209 36.7773 16.9247 36.7773 19.9113C36.7773 22.8975 36.5651 25.9009 36.1406 28.9214C36.0461 29.5938 35.6907 30.2034 35.1498 30.6209C32.7334 32.4858 30.2112 34.169 27.5829 35.6707C24.954 37.1727 22.2191 38.493 19.3781 39.6316C18.7433 39.886 18.0334 39.8862 17.3984 39.6322C14.5728 38.5017 11.8381 37.1812 9.19432 35.6707C6.55087 34.1603 4.02823 32.4772 1.6264 30.6211C1.08614 30.2036 0.731235 29.5945 0.636814 28.9226Z" fill="white"/>
</mask>
<g mask="url(#mask0)">
</g>
<path d="M14.7671 11.6607H22.5839L28.0972 6.46487C28.5852 6.00497 28.2597 5.18506 27.5891 5.18506H23.1085C22.1642 5.18506 21.2556 5.54576 20.5683 6.19342L14.7671 11.6607Z" fill="#F1543F"/>
<path fill-rule="evenodd" clip-rule="evenodd" d="M12.939 11.1065V15.1146H24.0338V11.1065C24.0338 10.6974 23.7022 10.3657 23.2931 10.3657H13.6797C13.2706 10.3657 12.939 10.6974 12.939 11.1065ZM22.7731 13.8811H14.1997V11.5992H22.7731V13.8811Z" fill="#F8B64C"/>
<path d="M22.5839 11.6607H14.7671L9.20569 6.46718C8.7144 6.00838 9.03905 5.18506 9.71126 5.18506H14.2424C15.1867 5.18506 16.0954 5.54576 16.7826 6.19341L22.5839 11.6607Z" fill="#FF7058"/>
<path d="M18.4864 34.7883C24.9273 34.7883 30.1486 29.6801 30.1486 23.3788C30.1486 17.0775 24.9273 11.9692 18.4864 11.9692C12.0456 11.9692 6.82422 17.0775 6.82422 23.3788C6.82422 29.6801 12.0456 34.7883 18.4864 34.7883Z" fill="#FFD15C"/>
<path d="M18.4568 32.0151C13.6028 32.0151 9.63135 28.1297 9.63135 23.3808C9.63135 18.632 13.6028 14.7466 18.4568 14.7466C23.3108 14.7466 27.2823 18.632 27.2823 23.3808C27.2823 28.1297 23.3108 32.0151 18.4568 32.0151Z" fill="#F8B64C"/>
<path d="M18.4396 17.6978L19.9024 22.0374H24.5933L20.7598 24.7496L22.2226 29.0892L18.4396 26.377L14.6566 29.0892L16.1193 24.7496L12.2859 22.0374H16.9768L18.4396 17.6978Z" fill="#FFD15C"/>
</svg>
