<svg width="37" height="40" viewBox="0 0 37 40" fill="none" xmlns="http://www.w3.org/2000/svg">
<path d="M0.624702 28.9226C0.208234 25.9017 0 22.8979 0 19.9113C0 16.9251 0.208178 13.9217 0.624534 10.9012C0.717224 10.2287 1.06587 9.61915 1.59656 9.20164C3.96691 7.33678 6.44121 5.65353 9.01945 4.15191C11.5984 2.64988 14.2813 1.32956 17.0683 0.190965C17.691 -0.0634525 18.3874 -0.0636621 19.0103 0.19038C21.7821 1.32087 24.4648 2.64138 27.0583 4.15191C29.6515 5.66223 32.1262 7.34541 34.4823 9.20145C35.0123 9.61894 35.3605 10.2281 35.4531 10.9C35.8696 13.9209 36.0778 16.9247 36.0778 19.9113C36.0778 22.8975 35.8696 25.9009 35.4533 28.9214C35.3606 29.5938 35.0119 30.2034 34.4812 30.6209C32.1109 32.4858 29.6366 34.169 27.0583 35.6707C24.4794 37.1727 21.7965 38.493 19.0095 39.6316C18.3868 39.886 17.6904 39.8862 17.0675 39.6322C14.2957 38.5017 11.613 37.1812 9.01945 35.6707C6.42628 34.1603 3.95162 32.4772 1.59546 30.6211C1.06548 30.2036 0.717327 29.5945 0.624702 28.9226Z" fill="#82C43C"/>
<mask id="mask0" mask-type="alpha" maskUnits="userSpaceOnUse" x="0" y="0" width="37" height="40">
<path d="M0.624702 28.9226C0.208234 25.9017 0 22.8979 0 19.9113C0 16.9251 0.208178 13.9217 0.624534 10.9012C0.717224 10.2287 1.06587 9.61915 1.59656 9.20164C3.96691 7.33678 6.44121 5.65353 9.01945 4.15191C11.5984 2.64988 14.2813 1.32956 17.0683 0.190965C17.691 -0.0634525 18.3874 -0.0636621 19.0103 0.19038C21.7821 1.32087 24.4648 2.64138 27.0583 4.15191C29.6515 5.66223 32.1262 7.34541 34.4823 9.20145C35.0123 9.61894 35.3605 10.2281 35.4531 10.9C35.8696 13.9209 36.0778 16.9247 36.0778 19.9113C36.0778 22.8975 35.8696 25.9009 35.4533 28.9214C35.3606 29.5938 35.0119 30.2034 34.4812 30.6209C32.1109 32.4858 29.6366 34.169 27.0583 35.6707C24.4794 37.1727 21.7965 38.493 19.0095 39.6316C18.3868 39.886 17.6904 39.8862 17.0675 39.6322C14.2957 38.5017 11.613 37.1812 9.01945 35.6707C6.42628 34.1603 3.95162 32.4772 1.59546 30.6211C1.06548 30.2036 0.717327 29.5945 0.624702 28.9226Z" fill="white"/>
</mask>
<g mask="url(#mask0)">
</g>
<g clip-path="url(#clip0)">
<path d="M16.8359 20.3701L18.1481 32.2587L23.9674 34.6954C24.9436 35.1041 26.0211 34.3871 26.0211 33.3289V20.3701H16.8359Z" fill="#F1543F"/>
<path d="M10.2751 20.3701V33.3277C10.2751 34.3863 11.3533 35.1033 12.3295 34.6939L18.1482 32.2542V20.3701H10.2751Z" fill="#FF7058"/>
<path d="M16.1798 15.4185L29.6295 16.7389C29.6295 23.1094 24.4786 28.2929 18.1481 28.2929L16.1798 15.4185Z" fill="#FFD15C"/>
<path d="M29.6295 16.739H16.1798L18.1481 5.18506C24.4786 5.18506 29.6295 10.3685 29.6295 16.739Z" fill="#FFD15C"/>
<path d="M18.1481 16.739V28.2929C11.8175 28.2929 6.66663 23.1095 6.66663 16.739L12.4074 14.7583L18.1481 16.739Z" fill="#FFD15C"/>
<path d="M18.1481 5.18506V16.739H6.66663C6.66663 10.3685 11.8175 5.18506 18.1481 5.18506Z" fill="#FFD15C"/>
<path d="M18.1481 8.48633C13.6257 8.48633 9.94702 12.1882 9.94702 16.7391L18.1481 23.6715C24.1841 23.6715 26.3491 16.7391 26.3491 16.7391C26.3491 12.1882 22.6705 8.48633 18.1481 8.48633Z" fill="white"/>
<path d="M24.3809 16.7389C24.3809 20.1972 21.5847 23.0111 18.1481 23.0111V10.4668C14.7115 10.4668 11.9153 13.2807 11.9153 16.7389H9.94702C9.94702 21.2899 13.6257 24.9918 18.1481 24.9918C22.6705 24.9918 26.3491 21.2899 26.3491 16.7389H24.3809Z" fill="white"/>
<path fill-rule="evenodd" clip-rule="evenodd" d="M18.1482 25.185C22.8528 25.185 26.6667 21.3711 26.6667 16.6665C26.6667 11.9618 22.8528 8.14795 18.1482 8.14795C13.4435 8.14795 9.62964 11.9618 9.62964 16.6665C9.62964 21.3711 13.4435 25.185 18.1482 25.185Z" fill="#F8B64C"/>
<path d="M20.6637 18.6422V20.1479H15.6113V18.6422H17.3784V14.8715C17.3037 14.9711 17.1834 15.0748 17.0175 15.1826C16.8599 15.2822 16.6856 15.3776 16.4948 15.4688C16.304 15.5601 16.1049 15.6348 15.8975 15.6928C15.6984 15.7509 15.52 15.7799 15.3624 15.7799V14.2244C15.5117 14.2244 15.6942 14.1788 15.9099 14.0875C16.1256 13.9879 16.3372 13.8718 16.5446 13.7391C16.752 13.6063 16.9304 13.4777 17.0797 13.3533C17.2373 13.2205 17.3369 13.1168 17.3784 13.0422H19.0833V18.6422H20.6637Z" fill="#FFEFC8"/>
</g>
<defs>
<clipPath id="clip0">
<rect width="23" height="31" fill="white" transform="translate(6.66663 5.18506)"/>
</clipPath>
</defs>
</svg>
