<svg width="37" height="40" viewBox="0 0 37 40" fill="none" xmlns="http://www.w3.org/2000/svg">
<path d="M0.636814 28.9226C0.212271 25.9017 0 22.8979 0 19.9113C0 16.9251 0.212214 13.9217 0.636642 10.9012C0.73113 10.2287 1.08653 9.61915 1.62751 9.20164C4.04382 7.33678 6.56609 5.65353 9.19432 4.15191C11.8233 2.64988 14.5582 1.32956 17.3992 0.190965C18.034 -0.0634525 18.7439 -0.0636621 19.3788 0.19038C22.2044 1.32087 24.9391 2.64138 27.5829 4.15191C30.2264 5.66223 32.749 7.34541 35.1509 9.20145C35.6911 9.61894 36.046 10.2281 36.1404 10.9C36.565 13.9209 36.7773 16.9247 36.7773 19.9113C36.7773 22.8975 36.5651 25.9009 36.1406 28.9214C36.0461 29.5938 35.6907 30.2034 35.1498 30.6209C32.7334 32.4858 30.2112 34.169 27.5829 35.6707C24.954 37.1727 22.2191 38.493 19.3781 39.6316C18.7433 39.886 18.0334 39.8862 17.3984 39.6322C14.5728 38.5017 11.8381 37.1812 9.19432 35.6707C6.55087 34.1603 4.02823 32.4772 1.6264 30.6211C1.08614 30.2036 0.731235 29.5945 0.636814 28.9226Z" fill="#FFC542"/>
<mask id="mask0" mask-type="alpha" maskUnits="userSpaceOnUse" x="0" y="0" width="37" height="40">
<path d="M0.636814 28.9226C0.212271 25.9017 0 22.8979 0 19.9113C0 16.9251 0.212214 13.9217 0.636642 10.9012C0.73113 10.2287 1.08653 9.61915 1.62751 9.20164C4.04382 7.33678 6.56609 5.65353 9.19432 4.15191C11.8233 2.64988 14.5582 1.32956 17.3992 0.190965C18.034 -0.0634525 18.7439 -0.0636621 19.3788 0.19038C22.2044 1.32087 24.9391 2.64138 27.5829 4.15191C30.2264 5.66223 32.749 7.34541 35.1509 9.20145C35.6911 9.61894 36.046 10.2281 36.1404 10.9C36.565 13.9209 36.7773 16.9247 36.7773 19.9113C36.7773 22.8975 36.5651 25.9009 36.1406 28.9214C36.0461 29.5938 35.6907 30.2034 35.1498 30.6209C32.7334 32.4858 30.2112 34.169 27.5829 35.6707C24.954 37.1727 22.2191 38.493 19.3781 39.6316C18.7433 39.886 18.0334 39.8862 17.3984 39.6322C14.5728 38.5017 11.8381 37.1812 9.19432 35.6707C6.55087 34.1603 4.02823 32.4772 1.6264 30.6211C1.08614 30.2036 0.731235 29.5945 0.636814 28.9226Z" fill="white"/>
</mask>
<g mask="url(#mask0)">
</g>
<path d="M7.19969 19.6535C7.19969 19.6535 8.33247 21.2872 10.7067 22.6701C10.7067 22.6701 8.98717 8.40353 20.1908 5.92578C17.3204 16.2681 23.842 19.1848 26.2193 13.7207C30.1893 18.9243 27.175 23.4642 27.175 23.4642C28.8028 23.6945 30.1703 21.9485 30.1703 21.9485C30.1825 22.1636 30.1893 22.3801 30.1893 22.5982C30.1894 28.9361 24.9558 34.0739 18.5 34.0739C12.0441 34.0739 6.81055 28.9361 6.81055 22.5982C6.81055 21.5801 6.94629 20.5933 7.19969 19.6535Z" fill="#FF7058"/>
<path d="M13.3734 29.0409C13.3734 31.8204 15.6686 34.0737 18.4999 34.0737C21.3312 34.0737 23.6264 31.8204 23.6264 29.0409C23.6264 27.5532 22.9689 26.2163 21.9236 25.2949C19.9415 27.9385 17.1169 23.9284 19.3182 21C19.3182 21 13.3734 21.7314 13.3734 29.0409Z" fill="#FFC065"/>
<path d="M23.6265 29.041C23.6265 27.5533 22.969 26.2164 21.9236 25.295C19.9415 27.9386 17.117 23.9285 19.3183 21.0001C19.3183 21.0001 18.1387 21.5937 17.5839 22.4918C14.761 27.8625 18.5 34.0738 18.5 34.0738C21.3313 34.0738 23.6265 31.8205 23.6265 29.041Z" fill="#FFA624"/>
</svg>
