<svg width="37" height="40" viewBox="0 0 37 40" fill="none" xmlns="http://www.w3.org/2000/svg">
<path d="M0.636814 28.9226C0.212271 25.9017 0 22.8979 0 19.9113C0 16.9251 0.212214 13.9217 0.636642 10.9012C0.73113 10.2287 1.08653 9.61915 1.62751 9.20164C4.04382 7.33678 6.56609 5.65353 9.19432 4.15191C11.8233 2.64988 14.5582 1.32956 17.3992 0.190965C18.034 -0.0634525 18.7439 -0.0636621 19.3788 0.19038C22.2044 1.32087 24.9391 2.64138 27.5829 4.15191C30.2264 5.66223 32.749 7.34541 35.1509 9.20145C35.6911 9.61894 36.046 10.2281 36.1404 10.9C36.565 13.9209 36.7773 16.9247 36.7773 19.9113C36.7773 22.8975 36.5651 25.9009 36.1406 28.9214C36.0461 29.5938 35.6907 30.2034 35.1498 30.6209C32.7334 32.4858 30.2112 34.169 27.5829 35.6707C24.954 37.1727 22.2191 38.493 19.3781 39.6316C18.7433 39.886 18.0334 39.8862 17.3984 39.6322C14.5728 38.5017 11.8381 37.1812 9.19432 35.6707C6.55087 34.1603 4.02823 32.4772 1.6264 30.6211C1.08614 30.2036 0.731235 29.5945 0.636814 28.9226Z" fill="#A461D8"/>
<mask id="mask0" mask-type="alpha" maskUnits="userSpaceOnUse" x="0" y="0" width="37" height="40">
<path d="M0.636814 28.9226C0.212271 25.9017 0 22.8979 0 19.9113C0 16.9251 0.212214 13.9217 0.636642 10.9012C0.73113 10.2287 1.08653 9.61915 1.62751 9.20164C4.04382 7.33678 6.56609 5.65353 9.19432 4.15191C11.8233 2.64988 14.5582 1.32956 17.3992 0.190965C18.034 -0.0634525 18.7439 -0.0636621 19.3788 0.19038C22.2044 1.32087 24.9391 2.64138 27.5829 4.15191C30.2264 5.66223 32.749 7.34541 35.1509 9.20145C35.6911 9.61894 36.046 10.2281 36.1404 10.9C36.565 13.9209 36.7773 16.9247 36.7773 19.9113C36.7773 22.8975 36.5651 25.9009 36.1406 28.9214C36.0461 29.5938 35.6907 30.2034 35.1498 30.6209C32.7334 32.4858 30.2112 34.169 27.5829 35.6707C24.954 37.1727 22.2191 38.493 19.3781 39.6316C18.7433 39.886 18.0334 39.8862 17.3984 39.6322C14.5728 38.5017 11.8381 37.1812 9.19432 35.6707C6.55087 34.1603 4.02823 32.4772 1.6264 30.6211C1.08614 30.2036 0.731235 29.5945 0.636814 28.9226Z" fill="white"/>
</mask>
<g mask="url(#mask0)">
</g>
<path d="M25.2597 11.1113H11.7401C10.77 11.1113 9.86171 11.5864 9.30843 12.3831L7.26304 15.3287C6.55065 16.3547 6.66316 17.7409 7.53146 18.6386L16.691 28.1079C17.68 29.1303 19.3198 29.1303 20.3089 28.1079L29.4684 18.6386C30.3369 17.7409 30.4492 16.3547 29.7368 15.3287L27.6914 12.3829C27.1383 11.5864 26.2298 11.1113 25.2597 11.1113Z" fill="#7DE2E2"/>
<path d="M14.9853 11.1113H11.7402C10.7701 11.1113 9.86176 11.5864 9.30849 12.3831L7.2631 15.3287C6.5507 16.3547 6.66304 17.7409 7.53152 18.6386L16.6911 28.1079C17.1286 28.5603 17.6933 28.8125 18.2728 28.8645C18.2728 28.8645 12.0075 21.2722 12.0075 17.0939C12.0077 14.3981 13.7493 12.2772 14.9853 11.1113Z" fill="#66D3D0"/>
<path d="M22.6542 17.0941H30.1896C30.2535 16.4876 30.1057 15.86 29.7371 15.3289L27.6913 12.3831C27.4056 11.9712 27.0246 11.6454 26.5894 11.4268L22.6542 17.0941Z" fill="#A0F0F2"/>
<path d="M14.3458 17.0939H22.6542L18.5 11.1113L14.3458 17.0939Z" fill="#BDFAFF"/>
<path d="M10.4105 11.4268C9.97532 11.6456 9.59456 11.9712 9.30864 12.3831L7.26307 15.329C6.89428 15.86 6.74641 16.4876 6.81034 17.0941H14.3458L10.4105 11.4268Z" fill="#A0F0F2"/>
<path d="M6.81042 17.0938C6.86972 17.6588 7.11278 18.2054 7.53157 18.6385L16.6911 28.1077C17.6801 29.1301 19.3199 29.1301 20.309 28.1077L29.4685 18.6385C29.8873 18.2054 30.1302 17.6588 30.1897 17.0938H6.81042Z" fill="#7DE2E2"/>
<path d="M18.2731 28.8645L14.3459 17.0938H6.81042C6.86972 17.6588 7.11278 18.2054 7.53157 18.6385L16.6911 28.1077C17.1286 28.5601 17.6934 28.8124 18.2731 28.8645Z" fill="#66D3D0"/>
<path d="M18.7266 28.8645L22.6541 17.0938H30.1895C30.1303 17.6588 29.8872 18.2054 29.4684 18.6385L20.3089 28.1077C19.8713 28.5601 19.3061 28.8124 18.7266 28.8645Z" fill="#66D3D0"/>
<path d="M12.0078 17.0938H6.81042C6.86972 17.6588 7.11278 18.2054 7.53157 18.6385L16.6911 28.1077C17.1286 28.5601 17.6934 28.8124 18.2731 28.8645C18.2731 28.8645 12.0078 21.272 12.0078 17.0938Z" fill="#57C1BC"/>
<path d="M12.0077 17.0941C12.0077 16.1552 12.2189 15.286 12.5465 14.5027L10.4105 11.4268C9.97532 11.6454 9.59456 11.9712 9.30864 12.3831L7.26307 15.329C6.89428 15.86 6.74641 16.4876 6.81034 17.0941H12.0077Z" fill="#7DE2E2"/>
</svg>
